<svg width="680" height="500" viewBox="0 0 680 500" xmlns="http://www.w3.org/2000/svg">
<style>
.wolf { fill: #06b6d4; }
.wolf-dark { fill: #0891b2; }
.wolf-accent { fill: #0e7490; }
.eye { fill: #0f172a; }
@media (prefers-color-scheme: dark) {
  .eye { fill: #f0fdfa; }
}
</style>

<g transform="translate(340, 220)">
  <polygon class="wolf-dark" points="-95,-180 -55,-95 -120,-85" />
  <polygon class="wolf" points="-90,-170 -60,-100 -110,-90" />
  <polygon class="wolf-dark" points="95,-180 55,-95 120,-85" />
  <polygon class="wolf" points="90,-170 60,-100 110,-90" />
  <path class="wolf" d="M-80,-90 C-100,-60 -110,-20 -105,10 C-100,40 -85,65 -65,85 C-45,105 -25,120 0,130 C25,120 45,105 65,85 C85,65 100,40 105,10 C110,-20 100,-60 80,-90 C60,-100 30,-105 0,-100 C-30,-105 -60,-100 -80,-90 Z" />
  <path class="wolf-dark" d="M-50,-85 C-30,-95 -10,-98 0,-95 C10,-98 30,-95 50,-85 C30,-70 10,-65 0,-68 C-10,-65 -30,-70 -50,-85 Z" />
  <ellipse class="wolf-accent" cx="-38" cy="-30" rx="22" ry="16" />
  <ellipse class="eye" cx="-35" cy="-30" rx="10" ry="11" />
  <circle fill="#06b6d4" cx="-31" cy="-34" r="3.5" opacity="0.9" />
  <ellipse class="wolf-accent" cx="38" cy="-30" rx="22" ry="16" />
  <ellipse class="eye" cx="35" cy="-30" rx="10" ry="11" />
  <circle fill="#06b6d4" cx="39" cy="-34" r="3.5" opacity="0.9" />
  <path class="wolf-dark" d="M-15,-15 C-10,-5 -8,10 0,20 C8,10 10,-5 15,-15 C5,-18 -5,-18 -15,-15 Z" />
  <path fill="#0e7490" d="M-12,18 C-8,12 8,12 12,18 C12,25 6,30 0,32 C-6,30 -12,25 -12,18 Z" />
  <path fill="#083344" d="M-8,17 C-5,14 5,14 8,17 C8,22 4,26 0,27 C-4,26 -8,22 -8,17 Z" />
  <path fill="none" stroke="#0e7490" stroke-width="1.5" stroke-linecap="round" d="M-25,45 C-15,35 -5,32 0,35 C5,32 15,35 25,45" />
  <path class="wolf-dark" d="M-60,60 C-45,55 -25,70 0,75 C25,70 45,55 60,60 C45,80 25,100 0,110 C-25,100 -45,80 -60,60 Z" />
  <path class="wolf-accent" d="M-35,95 C-20,105 -8,115 0,120 C8,115 20,105 35,95 C25,110 10,125 0,130 C-10,125 -25,110 -35,95 Z" />
</g>

<text x="340" y="400" text-anchor="middle" font-family="'Inter', system-ui, sans-serif" font-weight="500" font-size="42" letter-spacing="12" fill="#06b6d4">FENRIS</text>
<text x="340" y="435" text-anchor="middle" font-family="'Inter', system-ui, sans-serif" font-weight="400" font-size="14" letter-spacing="3" fill="#0891b2" opacity="0.8">PREDICTIVE INFRASTRUCTURE MONITORING</text>
</svg>
